<svg width="22" height="26" viewBox="0 0 22 26" fill="none" xmlns="http://www.w3.org/2000/svg">
<g filter="url(#filter0_i_37_5)">
<path d="M21.0369 18.4848C20.8394 18.4043 20.6226 18.383 20.4131 18.4237C20.2037 18.4644 20.0107 18.5652 19.8579 18.7137L19.7222 18.8491C18.5553 20.0367 17.1623 20.9798 15.625 21.6233C14.0877 22.2667 12.4371 22.5974 10.77 22.596C9.10264 22.5718 7.45663 22.2181 5.92717 21.5553C4.39771 20.8925 3.01517 19.9337 1.85951 18.7346C1.71102 18.5759 1.51653 18.4676 1.30326 18.4247C1.08998 18.3817 0.868589 18.4064 0.670056 18.4952C0.461888 18.5747 0.284741 18.7187 0.164572 18.906C0.0444034 19.0933 -0.0124688 19.3141 0.00228981 19.536V24.9592C0.00228981 25.2353 0.112218 25.5 0.30789 25.6952C0.503563 25.8904 0.768951 26 1.04567 26H20.6196C20.8963 26 21.1617 25.8904 21.3573 25.6952C21.553 25.5 21.6629 25.2353 21.6629 24.9592V19.4839C21.672 19.2738 21.6171 19.0658 21.5053 18.8875C21.3936 18.7091 21.2303 18.5687 21.0369 18.4848Z" fill="#E9ECED"/>
</g>
<g filter="url(#filter1_i_37_5)">
<path d="M10.8532 0C8.70699 0 6.60902 0.63484 4.82455 1.82424C3.04008 3.01364 1.64926 4.70418 0.827956 6.68208C0.00665477 8.65998 -0.208235 10.8364 0.210461 12.9361C0.629157 15.0359 1.66263 16.9646 3.1802 18.4784C4.69777 19.9922 6.63126 21.0232 8.73619 21.4408C10.8411 21.8585 13.0229 21.6441 15.0057 20.8248C16.9885 20.0056 18.6832 18.6182 19.8756 16.8381C21.0679 15.0581 21.7043 12.9653 21.7043 10.8244C21.6988 7.95528 20.5538 5.20525 18.52 3.17647C16.4862 1.14769 13.7294 0.00550168 10.8532 0Z" fill="#E9ECED"/>
</g>
<defs>
<filter id="filter0_i_37_5" x="0" y="18.4036" width="21.6641" height="8.59644" filterUnits="userSpaceOnUse" color-interpolation-filters="sRGB">
<feFlood flood-opacity="0" result="BackgroundImageFix"/>
<feBlend mode="normal" in="SourceGraphic" in2="BackgroundImageFix" result="shape"/>
<feColorMatrix in="SourceAlpha" type="matrix" values="0 0 0 0 0 0 0 0 0 0 0 0 0 0 0 0 0 0 127 0" result="hardAlpha"/>
<feOffset dy="1"/>
<feGaussianBlur stdDeviation="0.5"/>
<feComposite in2="hardAlpha" operator="arithmetic" k2="-1" k3="1"/>
<feColorMatrix type="matrix" values="0 0 0 0 0 0 0 0 0 0 0 0 0 0 0 0 0 0 0.13 0"/>
<feBlend mode="normal" in2="shape" result="effect1_innerShadow_37_5"/>
</filter>
<filter id="filter1_i_37_5" x="0.00195312" y="0" width="21.7021" height="22.6488" filterUnits="userSpaceOnUse" color-interpolation-filters="sRGB">
<feFlood flood-opacity="0" result="BackgroundImageFix"/>
<feBlend mode="normal" in="SourceGraphic" in2="BackgroundImageFix" result="shape"/>
<feColorMatrix in="SourceAlpha" type="matrix" values="0 0 0 0 0 0 0 0 0 0 0 0 0 0 0 0 0 0 127 0" result="hardAlpha"/>
<feOffset dy="1"/>
<feGaussianBlur stdDeviation="0.5"/>
<feComposite in2="hardAlpha" operator="arithmetic" k2="-1" k3="1"/>
<feColorMatrix type="matrix" values="0 0 0 0 0 0 0 0 0 0 0 0 0 0 0 0 0 0 0.13 0"/>
<feBlend mode="normal" in2="shape" result="effect1_innerShadow_37_5"/>
</filter>
</defs>
</svg>
